<?xml version="1.0" encoding="utf-8"?>
<!-- Generator: Adobe Illustrator 26.3.1, SVG Export Plug-In . SVG Version: 6.00 Build 0)  -->
<svg version="1.1" id="Warstwa_1" xmlns="http://www.w3.org/2000/svg" xmlns:xlink="http://www.w3.org/1999/xlink" x="0px" y="0px"
	 viewBox="0 0 430 430" style="enable-background:new 0 0 430 430;" xml:space="preserve">
<style type="text/css">
	.st0{fill:url(#SVGID_1_);}
</style>
<linearGradient id="SVGID_1_" gradientUnits="userSpaceOnUse" x1="77.0475" y1="98.0614" x2="352.9544" y2="373.9683">
	<stop  offset="0" style="stop-color:#cb5eee"/>
	<stop  offset="1" style="stop-color:#4be1ec"/>
</linearGradient>
<path class="st0" d="M376.1,123.7h-95.7l-14.9-38.1c-0.9-2.4-3.2-4-5.8-4h-89.5c-2.6,0-4.8,1.6-5.8,4l-14.9,38.1h-22.2v-20.5
	c0-3.4-2.8-6.2-6.2-6.2H87.6c-3.4,0-6.2,2.8-6.2,6.2v20.5H53.9c-3.4,0-6.2,2.8-6.2,6.2v212.1c0,3.4,2.8,6.2,6.2,6.2h322.1
	c3.4,0,6.2-2.8,6.2-6.2V129.9C382.3,126.5,379.5,123.7,376.1,123.7z M174.5,94.1h81l11.6,29.6H162.9L174.5,94.1z M369.9,335.9H60.1
	V136.1h309.7V335.9z M215,149.7c-47.6,0-86.3,38.7-86.3,86.3c0,47.6,38.7,86.3,86.3,86.3c47.6,0,86.3-38.7,86.3-86.3
	C301.3,188.4,262.6,149.7,215,149.7z M215,309.9c-40.8,0-73.9-33.2-73.9-73.9s33.2-73.9,73.9-73.9s73.9,33.2,73.9,73.9
	C288.9,276.8,255.8,309.9,215,309.9z M215,175.3c-33.5,0-60.7,27.2-60.7,60.7c0,33.5,27.2,60.7,60.7,60.7
	c33.5,0,60.7-27.2,60.7-60.7C275.7,202.5,248.5,175.3,215,175.3z M215,284.3c-26.6,0-48.3-21.7-48.3-48.3s21.7-48.3,48.3-48.3
	s48.3,21.7,48.3,48.3C263.3,262.6,241.6,284.3,215,284.3z M334.6,186.4c12.5,0,22.6-10.1,22.6-22.6s-10.1-22.6-22.6-22.6
	c-12.5,0-22.6,10.1-22.6,22.6S322.1,186.4,334.6,186.4z M334.6,153.6c5.6,0,10.2,4.6,10.2,10.2s-4.6,10.2-10.2,10.2
	s-10.2-4.6-10.2-10.2S329,153.6,334.6,153.6z"/>
</svg>
