<?xml version="1.0" encoding="utf-8"?>
<!-- Generator: Adobe Illustrator 26.0.2, SVG Export Plug-In . SVG Version: 6.00 Build 0)  -->
<svg version="1.1" id="Warstwa_1" xmlns="http://www.w3.org/2000/svg" xmlns:xlink="http://www.w3.org/1999/xlink" x="0px" y="0px"
	 viewBox="0 0 430 430" style="enable-background:new 0 0 430 430;" xml:space="preserve">
<style type="text/css">
	.st0{fill:url(#SVGID_1_);}
	.st1{fill:url(#SVGID_00000032621652343036690580000011135933616785555343_);}
	.st2{fill:url(#SVGID_00000147218105848339801470000015453985026608887972_);}
	.st3{fill:url(#SVGID_00000121273979422887211210000012707063818463086776_);}
	.st4{fill:url(#SVGID_00000159462433890498463090000015424121207465349797_);}
	.st5{fill:url(#SVGID_00000166671986499060646080000012180674944421577096_);}
	.st6{fill:url(#SVGID_00000126301375111168851000000008672688892864090003_);}
	.st7{fill:url(#SVGID_00000100361378898711445940000009927865747418870928_);}
	.st8{fill:url(#SVGID_00000115497349063725317680000003053998430039874966_);}
	.st9{fill:url(#SVGID_00000092436739101645924710000006857575855552755638_);}
	.st10{fill:url(#SVGID_00000103259762847908627660000012994966545847419322_);}
	.st11{fill:url(#SVGID_00000018944786081797931540000004354219008803771544_);}
	.st12{fill:url(#SVGID_00000019659190017070430440000010423333876916979110_);}
	.st13{fill:url(#SVGID_00000029748749709003513800000008824426438944873406_);}
	.st14{fill:url(#SVGID_00000005950143315232836050000002423775244364362174_);}
	.st15{fill:url(#SVGID_00000174560133795604363480000015321881290599610756_);}
	.st16{fill:url(#SVGID_00000009551656398418252530000001708449364400333734_);}
	.st17{fill:url(#SVGID_00000011733501629487538900000001904220479293819019_);}
	.st18{fill:url(#SVGID_00000012448859481383173710000011430505647487825285_);}
	.st19{fill:url(#SVGID_00000073714360480163131290000007696369497085139081_);}
	.st20{fill:url(#SVGID_00000068656888369860247140000011829680740198421138_);}
	.st21{fill:url(#SVGID_00000151533444924488564230000009125813326648464558_);}
	.st22{fill:url(#SVGID_00000056393486878276329970000013440326422746509719_);}
	.st23{fill:url(#SVGID_00000170240229724812458150000000173452812167143813_);}
	.st24{fill:none;}
	.st25{fill:url(#SVGID_00000024724548046834416090000006758832550189655704_);}
	.st26{fill:url(#SVGID_00000091001588831999298940000002958866046425669025_);}
	.st27{fill:url(#SVGID_00000153682701733724135010000008294834723812846231_);}
	.st28{fill:url(#SVGID_00000139282468476982665220000016602594339154202245_);}
	.st29{fill:url(#SVGID_00000039848116490085933870000002360577854822903475_);}
	.st30{fill:url(#SVGID_00000023968005041223192950000012807468296509792442_);}
	.st31{fill:url(#SVGID_00000039822081042391713620000017664748963713248420_);}
	.st32{fill:url(#SVGID_00000172422846346770094790000007066521397376854658_);}
	.st33{fill:url(#SVGID_00000005966151040552471380000016105939488136387495_);}
	.st34{fill:url(#SVGID_00000087412926777243819840000009344606566381322888_);}
	.st35{fill:url(#SVGID_00000059992551776435714470000001891234193111100606_);}
	.st36{fill:url(#SVGID_00000142160963816345315850000001270553448236840843_);}
	.st37{fill:url(#SVGID_00000129892164507562035340000012747674974256993702_);}
	.st38{fill:url(#SVGID_00000147930407385608084840000005440634064906543528_);}
	.st39{fill:url(#SVGID_00000162340718569298138630000007110541134813966772_);}
	.st40{fill:url(#SVGID_00000053531551501388058330000003282753068727964834_);}
	.st41{fill:url(#SVGID_00000036253415985012528400000016899924137753190041_);}
	.st42{fill:url(#SVGID_00000065790098922714786400000001776366284974800025_);}
</style>
<linearGradient id="SVGID_1_" gradientUnits="userSpaceOnUse" x1="92.0642" y1="154.2027" x2="337.9657" y2="400.1041">
	<stop  offset="0" style="stop-color:#cb5eee"/>
	<stop  offset="1" style="stop-color:#4be1ec"/>
</linearGradient>
<path class="st0" d="M271.1,243.11H159.36c-57.16,0-103.66,46.47-103.71,103.62l-0.46,14.31c-0.05,1.62,0.56,3.2,1.69,4.37
	c1.13,1.17,2.69,1.83,4.31,1.83h307.16c3.24,0,5.89-2.57,6-5.81l0.46-14.41c0-0.06,0-0.13,0-0.19
	C374.81,289.64,328.28,243.11,271.1,243.11z M362.54,355.23H67.38l0.26-8.22c0-0.06,0-0.13,0-0.19c0-50.57,41.14-91.71,91.71-91.71
	H271.1c50.54,0,91.66,41.09,91.71,91.62L362.54,355.23z M215.23,216.23c42.31,0,76.73-34.42,76.73-76.73
	c0-18.03-6.37-35.54-17.95-49.32c-14.63-17.42-36.06-27.41-58.79-27.41c-42.31,0-76.73,34.42-76.73,76.73
	S172.92,216.23,215.23,216.23z M215.23,74.77c19.17,0,37.25,8.43,49.6,23.13c0,0,0,0,0,0c9.76,11.62,15.13,26.39,15.13,41.6
	c0,35.69-29.04,64.73-64.73,64.73c-35.69,0-64.73-29.04-64.73-64.73C150.5,103.8,179.54,74.77,215.23,74.77z"/>
</svg>
