<?xml version="1.0" encoding="utf-8"?>
<!-- Generator: Adobe Illustrator 26.3.1, SVG Export Plug-In . SVG Version: 6.00 Build 0)  -->
<svg version="1.1" id="outline" xmlns="http://www.w3.org/2000/svg" xmlns:xlink="http://www.w3.org/1999/xlink" x="0px" y="0px"
	 viewBox="0 0 430 430" style="enable-background:new 0 0 430 430;" xml:space="preserve">
<style type="text/css">
	.st0{fill:url(#SVGID_1_);}
</style>
<linearGradient id="SVGID_1_" gradientUnits="userSpaceOnUse" x1="87.7343" y1="54.2968" x2="341.7394" y2="308.302">
	<stop  offset="0" style="stop-color:#cb5eee"/>
	<stop  offset="1" style="stop-color:#4be1ec"/>
</linearGradient>
<path class="st0" d="M282.8,310v-33c0-3.3-2.7-6-6-6h-32.9c-3.3,0-6,2.7-6,6v60.2c0,6.2-2.4,12-6.8,16.4s-10.2,6.8-16.4,6.8
	c-12.8,0-23.2-10.4-23.2-23.2V277c0-3.3-2.7-6-6-6h-32.9c-3.3,0-6,2.7-6,6v62.1c0,18.2,7.1,35.3,19.9,48.1
	c12.9,12.9,30,19.9,48.1,19.9c37.5,0,68.1-30.5,68.1-68.1v-24.3c0.3-0.7,0.5-1.5,0.5-2.4C283.3,311.5,283.1,310.8,282.8,310z
	 M270.8,339.1c0,30.9-25.2,56.1-56.1,56.1c-15,0-29-5.8-39.6-16.4c-10.6-10.6-16.4-24.7-16.4-39.6v-20.7h20.9v18.9
	c0,19.4,15.8,35.2,35.2,35.2c9.4,0,18.2-3.7,24.9-10.3c6.7-6.6,10.3-15.5,10.3-24.9v-18.9h20.9V339.1z M243.5,225.4
	c-3.3,0-6,2.7-6,6v19c0,3.3,2.7,6,6,6s6-2.7,6-6v-19C249.5,228.1,246.8,225.4,243.5,225.4z M276.6,189.7c-3.3,0-6,2.7-6,6v36.2
	c0,3.3,2.7,6,6,6c3.3,0,6-2.7,6-6v-36.2C282.6,192.3,279.9,189.7,276.6,189.7z M185.4,225.4c-3.3,0-6,2.7-6,6v19c0,3.3,2.7,6,6,6
	s6-2.7,6-6v-19C191.4,228.1,188.7,225.4,185.4,225.4z M154.3,189.7c-3.3,0-6,2.7-6,6v36.2c0,3.3,2.7,6,6,6s6-2.7,6-6v-36.2
	C160.3,192.3,157.6,189.7,154.3,189.7z M348.4,141.3v10.6c0,5.9-4.5,10.9-10.4,11.6l-11,1.3c-2.5,0.3-4.9,0.9-7.1,1.9
	c-7.9,3.3-16.4,5-24.9,5c-8.5,0-16.9-1.6-24.8-4.9c-2.5-1-5-1.7-7.6-2l-10.5-1.2c-5.9-0.7-10.4-5.7-10.4-11.6v-10.6
	c0-20.7,16.8-37.5,37.5-37.5h31.5C331.5,103.8,348.3,120.6,348.4,141.3z M323.1,47.9l-0.7,20.3C321.9,83,309.9,94.6,295,94.6
	c-14.8,0-26.8-11.6-27.4-26.4L267,47.9c-0.3-7.5,2.5-14.6,7.7-20c5.2-5.4,12.2-8.4,19.7-8.4h1.4c7.5,0,14.5,3,19.7,8.4
	C320.6,33.4,323.4,40.5,323.1,47.9z M162.5,47.9l-0.7,20.3c-0.5,14.8-12.5,26.4-27.4,26.4S107.6,83,107.1,68.2l-0.7-20.3
	c-0.3-7.5,2.5-14.6,7.7-20c5.2-5.4,12.2-8.4,19.7-8.4h1.4c7.5,0,14.5,3,19.7,8.4C160,33.4,162.8,40.5,162.5,47.9z M187.8,141.3v10.6
	c0,5.9-4.5,10.9-10.4,11.6l-11,1.3c-2.5,0.3-4.9,0.9-7.1,1.9c-7.9,3.3-16.4,5-24.9,5c-8.5,0-16.9-1.6-24.8-4.9c-2.5-1-5-1.7-7.6-2
	l-10.5-1.2c-5.9-0.7-10.4-5.7-10.4-11.6v-10.6c0-20.7,16.8-37.5,37.5-37.5h31.5C170.9,103.8,187.8,120.6,187.8,141.3z"/>
</svg>
